<mxfile host="app.diagrams.net" modified="2023-11-14T10:43:53.060Z" agent="Mozilla/5.0 (Windows NT 10.0; Win64; x64) AppleWebKit/537.36 (KHTML, like Gecko) Chrome/119.0.0.0 Safari/537.36 Edg/119.0.0.0" version="22.1.0" etag="-A2cn4wjq3B_W8rPWGUD" type="github">
  <diagram name="Strona-1" id="sZqN9dKvMSAKCHQ05o4N">
    <mxGraphModel>
      <root>
        <mxCell id="0" />
        <mxCell id="1" parent="0" />
      </root>
    </mxGraphModel>
  </diagram>
</mxfile>
